<svg xmlns="http://www.w3.org/2000/svg" width="1200" height="840" viewBox="0 0 1200 840">
<rect width="1200" height="840" fill="#fffdf7"/>
<style>
.t{font-family:Arial, Helvetica, sans-serif;fill:#333}
.card{fill:#f2f8fb;stroke:#1f6688;stroke-width:4}
</style>
<g transform="translate(70,150)">
  <rect class="card" x="0" y="0" width="220" height="250"/>
  <rect x="60" y="45" width="100" height="150" rx="12" fill="#2e7250" stroke="#1b4b35" stroke-width="5"/>
  <rect x="83" y="72" width="54" height="46" rx="4" fill="#222"/>
  <circle cx="52" cy="90" r="4" fill="#333"/><circle cx="52" cy="120" r="4" fill="#333"/><circle cx="52" cy="150" r="4" fill="#333"/>
  <circle cx="168" cy="90" r="4" fill="#333"/><circle cx="168" cy="120" r="4" fill="#333"/><circle cx="168" cy="150" r="4" fill="#333"/>
</g>
<text class="t" x="120" y="430" font-size="18">ESP32 DevKit</text>

<g transform="translate(340,150)">
  <rect class="card" x="0" y="0" width="220" height="250"/>
  <rect x="40" y="55" width="140" height="90" rx="12" fill="#f6f6f6" stroke="#bbb" stroke-width="3"/>
  <g fill="#ddd"><circle cx="68" cy="84" r="4"/><circle cx="68" cy="116" r="4"/><circle cx="96" cy="84" r="4"/><circle cx="96" cy="116" r="4"/><circle cx="124" cy="84" r="4"/><circle cx="124" cy="116" r="4"/><circle cx="152" cy="84" r="4"/><circle cx="152" cy="116" r="4"/></g>
</g>
<text class="t" x="410" y="430" font-size="18">Breadboard</text>

<g transform="translate(620,120)">
  <rect class="card" x="0" y="0" width="270" height="290"/>
  <circle cx="135" cy="76" r="48" fill="#f4f4f4" stroke="#777" stroke-width="5"/>
  <path d="M105 84 C122 50, 148 50, 165 84" fill="none" stroke="#ffffff" stroke-width="8" stroke-linecap="round"/>
  <circle cx="113" cy="84" r="11" fill="#ff4a4a"/>
  <circle cx="135" cy="69" r="11" fill="#43b94a"/>
  <circle cx="157" cy="84" r="11" fill="#3d7eff"/>
  <line x1="95" y1="123" x2="91" y2="208" stroke="#666" stroke-width="6"/>
  <line x1="122" y1="123" x2="122" y2="208" stroke="#666" stroke-width="6"/>
  <line x1="148" y1="123" x2="148" y2="208" stroke="#666" stroke-width="6"/>
  <line x1="175" y1="123" x2="180" y2="220" stroke="#666" stroke-width="6"/>
  <text class="t" x="86" y="242" font-size="16">R</text>
  <text class="t" x="117" y="242" font-size="16">G</text>
  <text class="t" x="143" y="242" font-size="16">B</text>
  <text class="t" x="160" y="242" font-size="14">gem.</text>
</g>
<text class="t" x="664" y="438" font-size="18">RGB-LED</text>

<g transform="translate(930,150)">
  <rect class="card" x="0" y="0" width="210" height="250"/>
  <g transform="translate(18,55)">
    <line x1="0" y1="25" x2="30" y2="25" stroke="#666" stroke-width="6"/>
    <rect x="30" y="0" width="80" height="50" rx="12" fill="#d8b18b" stroke="#885f3c" stroke-width="4"/>
    <line x1="110" y1="25" x2="140" y2="25" stroke="#666" stroke-width="6"/>
  </g>
  <g transform="translate(18,115)">
    <line x1="0" y1="25" x2="30" y2="25" stroke="#666" stroke-width="6"/>
    <rect x="30" y="0" width="80" height="50" rx="12" fill="#d8b18b" stroke="#885f3c" stroke-width="4"/>
    <line x1="110" y1="25" x2="140" y2="25" stroke="#666" stroke-width="6"/>
  </g>
  <g transform="translate(18,175)">
    <line x1="0" y1="25" x2="30" y2="25" stroke="#666" stroke-width="6"/>
    <rect x="30" y="0" width="80" height="50" rx="12" fill="#d8b18b" stroke="#885f3c" stroke-width="4"/>
    <line x1="110" y1="25" x2="140" y2="25" stroke="#666" stroke-width="6"/>
  </g>
</g>
<text class="t" x="993" y="430" font-size="18">Motstånd</text>

<g transform="translate(260,540)">
  <rect class="card" x="0" y="0" width="280" height="130"/>
  <path d="M45 65 C95 20, 140 115, 225 45" fill="none" stroke="#e45d42" stroke-width="9" stroke-linecap="round"/>
  <path d="M50 92 C115 55, 160 118, 230 70" fill="none" stroke="#2a7ea5" stroke-width="9" stroke-linecap="round"/>
</g>
<text class="t" x="336" y="700" font-size="18">Kopplingskablar</text>

<g transform="translate(660,540)">
  <rect class="card" x="0" y="0" width="280" height="130"/>
  <rect x="50" y="45" width="145" height="40" rx="8" fill="#f2f2f2" stroke="#777" stroke-width="4"/>
  <rect x="195" y="53" width="35" height="24" rx="4" fill="#cccccc" stroke="#777" stroke-width="3"/>
</g>
<text class="t" x="760" y="700" font-size="18">USB</text>
</svg>
