<svg xmlns="http://www.w3.org/2000/svg" width="1340" height="720" viewBox="0 0 1340 720">
<rect width="1340" height="720" fill="#fffdf7"/>
<style>
.t{font-family:Arial, Helvetica, sans-serif}
.gpio{font-size:15px;font-weight:700;fill:#fff}
.label{font-size:15px;fill:#333}
.name{font-size:20px;font-weight:700;fill:#222}
.note{font-size:16px;font-weight:700;fill:#222}
</style>
<g transform="translate(80,150)">
  <rect x="0" y="0" width="250" height="390" rx="4" fill="#2e7250" stroke="#1b4b35" stroke-width="5"/>
  <rect x="80" y="60" width="88" height="62" rx="4" fill="#222"/>
  <text class="t" x="95" y="318" font-size="22" fill="#163827">ESP32</text>
  <rect x="215" y="55" width="110" height="40" rx="3" fill="#ff4a4a"/><text class="t gpio" x="235" y="81">GPIO 23</text>
  <rect x="215" y="130" width="110" height="40" rx="3" fill="#43b94a"/><text class="t gpio" x="235" y="156">GPIO 22</text>
  <rect x="215" y="205" width="110" height="40" rx="3" fill="#3d7eff"/><text class="t gpio" x="235" y="231">GPIO 21</text>
  <rect x="215" y="320" width="88" height="40" rx="3" fill="#222"/><text class="t gpio" x="241" y="346">GND</text>
</g>

<line x1="405" y1="225" x2="500" y2="225" stroke="#ff4a4a" stroke-width="8" stroke-linecap="round"/>
<rect x="500" y="200" width="120" height="50" rx="12" fill="#d8b18b" stroke="#885f3c" stroke-width="4"/>
<line x1="620" y1="225" x2="780" y2="225" stroke="#ff4a4a" stroke-width="8" stroke-linecap="round"/>

<line x1="405" y1="300" x2="500" y2="300" stroke="#43b94a" stroke-width="8" stroke-linecap="round"/>
<rect x="500" y="275" width="120" height="50" rx="12" fill="#d8b18b" stroke="#885f3c" stroke-width="4"/>
<line x1="620" y1="300" x2="800" y2="300" stroke="#43b94a" stroke-width="8" stroke-linecap="round"/>

<line x1="405" y1="375" x2="500" y2="375" stroke="#3d7eff" stroke-width="8" stroke-linecap="round"/>
<rect x="500" y="350" width="120" height="50" rx="12" fill="#d8b18b" stroke="#885f3c" stroke-width="4"/>
<line x1="620" y1="375" x2="820" y2="375" stroke="#3d7eff" stroke-width="8" stroke-linecap="round"/>

<circle cx="930" cy="235" r="54" fill="#f4f4f4" stroke="#777" stroke-width="5"/>
<path d="M896 243 C915 205, 945 205, 964 243" fill="none" stroke="#ffffff" stroke-width="8" stroke-linecap="round"/>
<circle cx="907" cy="243" r="12" fill="#ff4a4a"/>
<circle cx="930" cy="227" r="12" fill="#43b94a"/>
<circle cx="953" cy="243" r="12" fill="#3d7eff"/>
<line x1="880" y1="287" x2="880" y2="375" stroke="#666" stroke-width="7" stroke-linecap="round"/>
<line x1="915" y1="287" x2="915" y2="375" stroke="#666" stroke-width="7" stroke-linecap="round"/>
<line x1="945" y1="287" x2="945" y2="375" stroke="#666" stroke-width="7" stroke-linecap="round"/>
<line x1="980" y1="287" x2="980" y2="475" stroke="#444" stroke-width="8" stroke-linecap="round"/>
<text class="t label" x="870" y="400">R</text>
<text class="t label" x="904" y="400">G</text>
<text class="t label" x="935" y="400">B</text>
<text class="t name" x="1000" y="238">RGB-LED</text>

<line x1="780" y1="225" x2="880" y2="225" stroke="#ff4a4a" stroke-width="8" stroke-linecap="round"/>
<line x1="880" y1="225" x2="880" y2="287" stroke="#ff4a4a" stroke-width="8" stroke-linecap="round"/>
<line x1="800" y1="300" x2="915" y2="300" stroke="#43b94a" stroke-width="8" stroke-linecap="round"/>
<line x1="915" y1="300" x2="915" y2="287" stroke="#43b94a" stroke-width="8" stroke-linecap="round"/>
<line x1="820" y1="375" x2="945" y2="375" stroke="#3d7eff" stroke-width="8" stroke-linecap="round"/>

<path d="M980 475 L980 490 L383 490" fill="none" stroke="#202020" stroke-width="8" stroke-linecap="round" stroke-linejoin="round"/>
<circle cx="383" cy="490" r="5" fill="#202020"/>
<text class="t" x="432" y="215" font-size="15" font-weight="700" fill="#ff4a4a">Röd kanal</text>
<text class="t" x="432" y="290" font-size="15" font-weight="700" fill="#43b94a">Grön kanal</text>
<text class="t" x="432" y="365" font-size="15" font-weight="700" fill="#3d7eff">Blå kanal</text>
<path d="M1010 418 Q995 430 982 448" fill="none" stroke="#444" stroke-width="3" stroke-linecap="round"/>
<text class="t note" x="1018" y="410">Gemensamt ben</text>
<text class="t" x="1018" y="437" font-size="15" fill="#444">går till GND</text>
</svg>